<svg id="Слой_1" data-name="Слой 1" xmlns="http://www.w3.org/2000/svg" viewBox="0 0 251 166"><path d="M67.68,73.32c15.54,0,27.43,4.1,38.73,10.29,7.45,4.08,14.23,9.15,21.24,13.88,9.23,6.23,18.9,11.65,29.62,15,24.11,7.54,45.32,1.75,64.4-13.78,1.43-1.17,2.81-2.41,4.18-3.65s2.68-2.39,4.33-1,.42,2.88-.49,4.16A72.43,72.43,0,0,1,199.1,122.9c-20,8.83-40,7.49-59.89-.33-10.46-4.11-20.08-9.79-29.68-15.53-10.27-6.13-21.06-11.17-32.89-13.53C57.91,89.8,41,93.37,26.4,106.11c-1.08,1-2.27,1.5-3.59.66s-1.1-2.26-.61-3.53A43.06,43.06,0,0,1,38.71,82.79c9.44-6.46,19.9-9.73,29-9.48Z" fill="#0d66fa"/><path d="M86.53,38c16.3.57,30.54,6.43,43.19,16.44a106.56,106.56,0,0,1,17.33,17.87C151,77.24,155,82,160,86c15.54,12.38,34.81,13.56,51.85,3.19A75.68,75.68,0,0,0,223,80.34c.83-.75,1.65-1.52,2.51-2.23a3.05,3.05,0,0,1,4.17-.21c1.39,1.11.94,2.41.24,3.72a45.38,45.38,0,0,1-11.1,13.29c-10.2,8.54-21.69,14.32-35.22,15.43-12,1-23.33-1.56-34.22-6.33-9.15-4-17.27-9.7-25.46-15.3a10.81,10.81,0,0,1-4.34-5.31,86.25,86.25,0,0,0-6.5-13.7C105,56,92.72,48.52,76.89,46.66A77.35,77.35,0,0,0,64,46.31c-.33,0-.66,0-1,0a2.45,2.45,0,0,1-2.69-1.86c-.4-1.42.45-2.29,1.61-2.8a36.23,36.23,0,0,1,9-2.42A81.1,81.1,0,0,1,86.53,38Z" fill="#fff"/><path d="M62.3,97.57a75.71,75.71,0,0,1,32.57,7.66c8.15,3.85,15.83,8.53,23.64,13a87.81,87.81,0,0,0,12.29,6c1.16.44,2.09,1,1.86,2.38s-1.35,1.61-2.54,1.68c-11.63.71-23-1.11-34.23-3.74-8.83-2.07-17.43-5-26.36-6.7a68.42,68.42,0,0,0-44.28,5.82c-.71.35-1.42.71-2.15,1a2.06,2.06,0,0,1-2.56-.32,2.24,2.24,0,0,1-.13-2.76A36.23,36.23,0,0,1,25.08,115a50.53,50.53,0,0,1,37.21-17.4Z" fill="#0d66fa"/><path d="M179.61,44.29a21.25,21.25,0,0,1,21.53,21.18c0,11.92-9.87,21.81-21.61,21.76a22,22,0,0,1-21.61-22C158,53.81,167.86,44.27,179.61,44.29Z" fill="#fff"/></svg>