<svg id="Слой_1" data-name="Слой 1" xmlns="http://www.w3.org/2000/svg" viewBox="0 0 54 54"><path d="M51,26.31a3.05,3.05,0,0,0,1.37-.58c.75-.49,1-.45,1.62.2V44.19c-.48.91-1.47.72-2.32.79a14.83,14.83,0,0,1-1.49,0c.84-.55.82-1.34.82-2.15,0-5.51,0-11,0-16.51Z" fill="#8ac8fd"/><path d="M51,26.31c0,5.5,0,11,0,16.51,0,.82,0,1.61-.82,2.16-15.88-.12-31.75,0-47.63,0a1.54,1.54,0,0,1-1.1-.28A1.26,1.26,0,0,1,1,43.59Q1,35.31,1,27c0-.23,0-.46,0-.69a.75.75,0,0,1,.45-.81,1.13,1.13,0,0,1,1.11.17,2.91,2.91,0,0,0,1.78.62A2.66,2.66,0,0,0,6,25.73a2.67,2.67,0,0,1,3.2,0,2.84,2.84,0,0,0,3.35.06,2.53,2.53,0,0,1,3.36,0,2.25,2.25,0,0,0,1.35.5,2.63,2.63,0,0,0,2-.53,2.62,2.62,0,0,1,3.29,0,2.66,2.66,0,0,0,3.3,0,2.62,2.62,0,0,1,3.34,0,2.92,2.92,0,0,0,1.6.54,3,3,0,0,0,1.83-.64,2.61,2.61,0,0,1,3,0,6.79,6.79,0,0,0,.67.42,2.53,2.53,0,0,0,2.55-.23,3.78,3.78,0,0,1,1.82-.67,2.55,2.55,0,0,1,1.57.48,2.88,2.88,0,0,0,3.51.07,2.46,2.46,0,0,1,3.27.05,3,3,0,0,0,2,.52ZM31.83,35.88a2.91,2.91,0,0,0,1.47-.5,1.76,1.76,0,0,1,.74-.32c.47-.08.78-.43.7-.8a.86.86,0,0,0-1-.55,2.91,2.91,0,0,0-1.31.5,1,1,0,0,1-1.21.07,2.38,2.38,0,0,0-3.11,0,1,1,0,0,1-1.23,0,2.41,2.41,0,0,0-3.05,0,1,1,0,0,1-1.29,0,3.09,3.09,0,0,0-1.26-.5.86.86,0,0,0-1,.57c-.07.36.24.7.72.78a1.71,1.71,0,0,1,.65.26,2.45,2.45,0,0,0,3.18,0,.8.8,0,0,1,1,0,4.51,4.51,0,0,0,.87.47,2.54,2.54,0,0,0,2.36-.4.88.88,0,0,1,1.22,0,2.53,2.53,0,0,0,1.54.53Zm-24.36-7a2.81,2.81,0,0,0-1.27.37,3.78,3.78,0,0,1-1.15.48.66.66,0,0,0-.51.76c0,.31.6.61,1,.56a2.45,2.45,0,0,0,1.34-.52.92.92,0,0,1,1.24,0,2.54,2.54,0,0,0,3.18,0,.79.79,0,0,1,1,0,2.94,2.94,0,0,0,1.48.59.8.8,0,0,0,.9-.51.64.64,0,0,0-.57-.82,2,2,0,0,1-.78-.32,2.53,2.53,0,0,0-3,0,1,1,0,0,1-1.34,0,3.05,3.05,0,0,0-1.47-.48Zm35.77,0a2.49,2.49,0,0,0-1.34.41,2.11,2.11,0,0,1-.9.41c-.51.09-.75.4-.66.85s.51.52,1,.47a2.52,2.52,0,0,0,1.3-.5,1,1,0,0,1,1.28,0,2.5,2.5,0,0,0,3,0,.9.9,0,0,1,1.24,0,2.26,2.26,0,0,0,1.24.5,1,1,0,0,0,1-.54c.08-.33-.22-.68-.67-.79a2.76,2.76,0,0,1-.86-.38,2.59,2.59,0,0,0-2.83,0,1,1,0,0,1-1.49,0,2.69,2.69,0,0,0-1.38-.45ZM36.82,39.17a2.08,2.08,0,0,0-1.48.41,1.77,1.77,0,0,1-.88.34.64.64,0,0,0-.63.72.69.69,0,0,0,.76.62A2.25,2.25,0,0,0,36,40.84a1.06,1.06,0,0,1,1.47,0,2.49,2.49,0,0,0,2.81.06c.73-.46.81-.47,1.55,0a2.32,2.32,0,0,0,1.39.41.67.67,0,0,0,.72-.63.62.62,0,0,0-.62-.71,1.77,1.77,0,0,1-.86-.37,2.59,2.59,0,0,0-2.91.08.91.91,0,0,1-1.2.06,2.11,2.11,0,0,0-1.55-.52ZM14,39.17a2.38,2.38,0,0,0-1.56.46,1.5,1.5,0,0,1-.73.29.63.63,0,0,0-.64.69.66.66,0,0,0,.7.65,2.48,2.48,0,0,0,1.61-.53,1,1,0,0,1,1.18,0,2.45,2.45,0,0,0,3.05,0,1,1,0,0,1,1.38.06,2.15,2.15,0,0,0,1.37.45c.48,0,.82-.28.84-.65s-.26-.65-.71-.71a1.49,1.49,0,0,1-.53-.16,2.6,2.6,0,0,0-3.33,0,.91.91,0,0,1-1.16-.06A2.05,2.05,0,0,0,14,39.17Z" fill="#b2d9fd"/><path d="M21.37,22.72c.93-1,2-1.81,3-2.69.32-.29.33-.47.05-.78-1.18-1.33-2.33-2.67-3.5-4a1.57,1.57,0,0,1,.16-2.52l7-6.19a2,2,0,0,1,3.22.65A1.55,1.55,0,0,1,30.79,9c-1.71,1.5-3.41,3-5.13,4.51-.35.29-.34.45,0,.74,2.05,1.78,4.08,3.59,6.12,5.38.13.12.22.32.49.27h0c0,.11-.12.25.14.19h.07a.33.33,0,0,0,.17.26l1.28,1.21c0,.09.12.09.21.08h0c0,.09.09.15.22.09h0c0,.34.4.44.59.67a4.47,4.47,0,0,0,.44.43,5.81,5.81,0,0,0-4.17.7.81.81,0,0,1-.86-.06,5.63,5.63,0,0,0-5.68,0,.85.85,0,0,1-.94,0,5.9,5.9,0,0,0-2.35-.75Z" fill="#f5a96c"/><path d="M21.37,22.72a5.9,5.9,0,0,1,2.35.75.87.87,0,0,0,.94,0,5.63,5.63,0,0,1,5.68,0,.79.79,0,0,0,.85.06,5.81,5.81,0,0,1,4.17-.7l3.07,2.66.44.37a2.51,2.51,0,0,1-2.54.23,5.92,5.92,0,0,1-.68-.42,2.6,2.6,0,0,0-3,0,3,3,0,0,1-1.83.64,2.85,2.85,0,0,1-1.6-.55,2.64,2.64,0,0,0-3.34,0,2.65,2.65,0,0,1-3.3,0,2.59,2.59,0,0,0-3.29,0,2.67,2.67,0,0,1-2,.53c1.34-1.21,2.65-2.44,4.09-3.57Z" fill="#e99b59"/><path d="M32.48,20.09H32.4c0-.07,0-.16-.14-.19h0a4.93,4.93,0,0,1-.62-2.5A4.33,4.33,0,0,1,33.82,14l.78.66,4.59,4s0,.06,0,.09a8.56,8.56,0,0,1-.89.82,5.6,5.6,0,0,1-3.71,1,12.32,12.32,0,0,1-2.12-.48Z" fill="#f5a96c"/><path d="M39.19,18.63l-4.59-4L33.82,14a5.57,5.57,0,0,1,5.69-.18,6.3,6.3,0,0,1,.35.75,3.91,3.91,0,0,1-.67,4.11Z" fill="#cb97e5"/><path d="M32.48,20.09a12.32,12.32,0,0,0,2.12.48,5.6,5.6,0,0,0,3.71-1,8.56,8.56,0,0,0,.89-.82L41,20.28a5.53,5.53,0,0,1-6.27,1.57.83.83,0,0,0-.44-.12h0c0-.1-.11-.12-.22-.09h0c0-.12-.12-.08-.21-.08l-1.28-1.21C32.56,20.27,32.47,20.21,32.48,20.09Z" fill="#e99b59"/><path d="M41,20.28,39.2,18.72s0-.06,0-.09a3.89,3.89,0,0,0,.67-4.1,5.65,5.65,0,0,0-.35-.75A4.26,4.26,0,0,1,42,17.16,3.77,3.77,0,0,1,41,20.28Z" fill="#bd81df"/><path d="M31.83,35.88a2.54,2.54,0,0,1-1.54-.54.91.91,0,0,0-1.23,0,2.47,2.47,0,0,1-2.35.4,3.7,3.7,0,0,1-.88-.47.81.81,0,0,0-1,0,2.46,2.46,0,0,1-3.17,0,1.85,1.85,0,0,0-.65-.26c-.49-.08-.79-.42-.72-.79a.86.86,0,0,1,1-.56,3.09,3.09,0,0,1,1.25.49,1,1,0,0,0,1.29,0,2.41,2.41,0,0,1,3.05,0,1,1,0,0,0,1.23,0,2.4,2.4,0,0,1,3.12,0,1,1,0,0,0,1.21-.07,3,3,0,0,1,1.3-.51.87.87,0,0,1,1,.56c.08.36-.23.72-.7.8a1.65,1.65,0,0,0-.73.31,2.89,2.89,0,0,1-1.48.51Z" fill="#8ac9fd"/><path d="M7.47,28.85a3,3,0,0,1,1.47.47,1,1,0,0,0,1.34,0,2.52,2.52,0,0,1,3,0,2.15,2.15,0,0,0,.78.32.65.65,0,0,1,.58.82.83.83,0,0,1-.91.51,3.17,3.17,0,0,1-1.48-.59.77.77,0,0,0-1,0,2.56,2.56,0,0,1-3.19,0,.9.9,0,0,0-1.23,0A2.51,2.51,0,0,1,5.49,31c-.35.05-.9-.25-1-.56a.65.65,0,0,1,.52-.76,3.73,3.73,0,0,0,1.14-.48,2.73,2.73,0,0,1,1.27-.37Z" fill="#8ac8fd"/><path d="M43.24,28.84a2.69,2.69,0,0,1,1.38.45,1,1,0,0,0,1.49,0,2.58,2.58,0,0,1,2.82,0,2.81,2.81,0,0,0,.87.38c.45.1.75.46.67.79a1,1,0,0,1-1,.54,2.37,2.37,0,0,1-1.25-.5.89.89,0,0,0-1.23,0,2.52,2.52,0,0,1-3,0,1,1,0,0,0-1.28,0,2.52,2.52,0,0,1-1.3.5.84.84,0,0,1-1-.48c-.1-.44.15-.75.65-.84a2.22,2.22,0,0,0,.91-.41,2.56,2.56,0,0,1,1.34-.42Z" fill="#8ac8fd"/><path d="M36.82,39.17a2.11,2.11,0,0,1,1.55.52.91.91,0,0,0,1.19-.06,2.61,2.61,0,0,1,2.92-.08,1.77,1.77,0,0,0,.86.37.63.63,0,0,1,.62.71.67.67,0,0,1-.72.63,2.32,2.32,0,0,1-1.39-.41c-.74-.45-.83-.44-1.55,0a2.5,2.5,0,0,1-2.82-.06,1,1,0,0,0-1.46,0,2.25,2.25,0,0,1-1.43.42.69.69,0,0,1-.76-.62.64.64,0,0,1,.63-.72,1.77,1.77,0,0,0,.88-.34,2.06,2.06,0,0,1,1.47-.41Z" fill="#8ac8fd"/><path d="M14,39.17a2.08,2.08,0,0,1,1.48.47.89.89,0,0,0,1.15.06,2.6,2.6,0,0,1,3.33,0,1.56,1.56,0,0,0,.53.16c.45.06.74.35.72.71s-.37.63-.85.65A2.15,2.15,0,0,1,19,40.82a1,1,0,0,0-1.38-.06,2.45,2.45,0,0,1-3.05,0,1,1,0,0,0-1.18,0,2.54,2.54,0,0,1-1.61.53.66.66,0,0,1-.7-.65.63.63,0,0,1,.64-.7,1.47,1.47,0,0,0,.74-.28A2.3,2.3,0,0,1,14,39.17Z" fill="#8ac8fd"/><path d="M32.26,19.9c.11,0,.11.12.14.19C32.14,20.15,32.24,20,32.26,19.9Z" fill="#f5a96c"/><path d="M33.92,21.56c.09,0,.19,0,.21.08S34,21.65,33.92,21.56Z" fill="#e99b59"/><path d="M34.12,21.64a.16.16,0,0,1,.22.09C34.21,21.8,34.16,21.74,34.12,21.64Z" fill="#e99b59"/></svg>