<svg id="Слой_1" data-name="Слой 1" xmlns="http://www.w3.org/2000/svg" viewBox="0 0 54 54"><path d="M1,23.7c.55-.66.94-.7,1.65-.17a2.39,2.39,0,0,0,3.35,0,2.4,2.4,0,0,1,3.24,0,2.24,2.24,0,0,0,1.69.6,1.71,1.71,0,0,0,1.57-.51,2.57,2.57,0,0,1,3.5,0,2.23,2.23,0,0,0,2.2.5,3.32,3.32,0,0,0,1.11-.64,2.43,2.43,0,0,1,3.08,0c1.47,1,2.11,1,3.61,0a2.35,2.35,0,0,1,2.27-.37,3.1,3.1,0,0,1,.89.5,2.39,2.39,0,0,0,3.28,0c.28-.21.57-.38.86-.57a3.05,3.05,0,0,1,2.84.79,2.29,2.29,0,0,0,2.6,0c.21-.15.4-.32.61-.47a2.45,2.45,0,0,1,2.93.11c1.38,1,2.19,1,3.55,0a2.35,2.35,0,0,1,3-.08,3,3,0,0,0,2.21.76q0,9.3,0,18.61c0,.78.09,1.58-.69,2.11,0,0,0,.1,0,.15H2.71A1.59,1.59,0,0,1,1,44V23.7Zm20.24,8.77c-.58,0-.94.25-1,.69s.34.76.83.83a1.28,1.28,0,0,1,.64.28,2.26,2.26,0,0,0,3,0,.86.86,0,0,1,1.24,0,2.35,2.35,0,0,0,3.08,0,.89.89,0,0,1,1.29,0,2.25,2.25,0,0,0,2.51.3,7.5,7.5,0,0,1,1.45-.71.63.63,0,0,0,.46-.8.77.77,0,0,0-.79-.6,2.26,2.26,0,0,0-1.56.55c-.5.39-.73.38-1.22,0a2.4,2.4,0,0,0-2.87-.1c-.75.54-.76.54-1.53,0a2.36,2.36,0,0,0-3,.09c-.52.4-.67.39-1.22,0a2,2,0,0,0-1.34-.52Zm22-5.4a2,2,0,0,0-1.53.5,1.45,1.45,0,0,1-.69.31.76.76,0,0,0-.7.84.81.81,0,0,0,.94.68,2.74,2.74,0,0,0,1.36-.57.86.86,0,0,1,1.2,0,2.33,2.33,0,0,0,3.07,0c.48-.4.79-.34,1.34,0a2.32,2.32,0,0,0,1.48.52.76.76,0,0,0,.74-.66A.62.62,0,0,0,50,28a3.65,3.65,0,0,1-1.27-.61,2.31,2.31,0,0,0-2.61.17c-.64.49-.73.49-1.4,0a1.94,1.94,0,0,0-1.47-.46ZM14,38.48a1.85,1.85,0,0,0-1.33.4,2.37,2.37,0,0,1-1,.47.7.7,0,0,0-.58.88c.07.42.34.58.76.6a2.11,2.11,0,0,0,1.5-.56.87.87,0,0,1,1.17-.06c1.28.88,1.93.89,3.19,0a.87.87,0,0,1,1.16,0,2.35,2.35,0,0,0,1.51.57.82.82,0,0,0,.85-.71.77.77,0,0,0-.75-.81,1.2,1.2,0,0,1-.65-.25,2.24,2.24,0,0,0-3.1,0,.9.9,0,0,1-1.21,0,2.13,2.13,0,0,0-1.53-.56ZM7.43,27.07a1.93,1.93,0,0,0-1.54.52,1.19,1.19,0,0,1-.64.3.72.72,0,0,0-.73.8.8.8,0,0,0,.91.71,2.52,2.52,0,0,0,1.36-.55.9.9,0,0,1,1.26,0,2.36,2.36,0,0,0,3.15,0,.82.82,0,0,1,1.16,0,2.53,2.53,0,0,0,1.4.58.81.81,0,0,0,.9-.67.74.74,0,0,0-.68-.84,1.63,1.63,0,0,1-.66-.28,2.33,2.33,0,0,0-3.07,0,.93.93,0,0,1-1.33,0,1.83,1.83,0,0,0-1.49-.47ZM36.76,38.48a2,2,0,0,0-1.43.49,1.39,1.39,0,0,1-.84.35.75.75,0,0,0-.68.82.82.82,0,0,0,.81.69A2.24,2.24,0,0,0,36,40.36c.72-.48.77-.48,1.47,0a2.25,2.25,0,0,0,3-.07.84.84,0,0,1,1.25,0,2.15,2.15,0,0,0,1.46.54c.52,0,.76-.21.8-.67a.77.77,0,0,0-.69-.85,1.33,1.33,0,0,1-.58-.19c-1.25-.89-1.9-.91-3.14-.1-.6.4-.78.39-1.37-.06a2.13,2.13,0,0,0-1.42-.48Z" fill="#b2d9fd"/><path d="M40.75,13.1c.94-.5,1.76-1.17,2.65-1.76s2-1.35,3-2a2.05,2.05,0,0,1,2.8.6,2,2,0,0,1-.65,2.57C46.35,14,44.17,15.47,42,17c-1.69,1.16-3.37,2.34-5.06,3.51l-.44.26a1.87,1.87,0,0,0-.88-.4,5.28,5.28,0,0,0-4.13.48,1.19,1.19,0,0,1-1.26.05,5.37,5.37,0,0,0-5.5,0,1.1,1.1,0,0,1-1.17,0,5.26,5.26,0,0,0-5.26-.09,1.48,1.48,0,0,1-2-.34,19.33,19.33,0,0,1,2.16-1.55c1.29-.91,2.6-1.82,3.94-2.68a6.68,6.68,0,0,1,4.51-1,7.48,7.48,0,0,1,4.3,2.07h0l.12.11c.27.17.37.48.53.72a.85.85,0,0,0,1.38.22c.26-.19.54-.37.8-.55,1.09-.78,2.24-1.47,3.28-2.32a30.91,30.91,0,0,0,3.42-2.35Z" fill="#fdd1a4"/><path d="M50.28,45c0-.05,0-.13,0-.15.78-.53.68-1.33.68-2.11q0-9.3,0-18.61a2.42,2.42,0,0,0,1.42-.67,1,1,0,0,1,1.1-.2c.41.17.48.56.48,1q0,9.65,0,19.28A1.31,1.31,0,0,1,52.55,45c-.76,0-1.52,0-2.27,0Z" fill="#8ac8fd"/><path d="M16.32,20.44a1.48,1.48,0,0,0,2,.34,5.23,5.23,0,0,1,5.26.09,1.1,1.1,0,0,0,1.17,0,5.37,5.37,0,0,1,5.5,0,1.19,1.19,0,0,0,1.26-.05,5.28,5.28,0,0,1,4.13-.48,1.87,1.87,0,0,1,.88.4L33.29,23c-.28.19-.57.36-.85.57a2.39,2.39,0,0,1-3.28,0,3.1,3.1,0,0,0-.89-.5,2.32,2.32,0,0,0-2.27.37c-1.5,1.06-2.14,1.06-3.61,0a2.43,2.43,0,0,0-3.08,0,3.42,3.42,0,0,1-1.11.64A2.25,2.25,0,0,1,16,23.6a2.56,2.56,0,0,0-3.49,0,1.72,1.72,0,0,1-1.57.51c.74-.53,1.49-1.07,2.24-1.59s1.74-1.2,2.62-1.79a1.07,1.07,0,0,1,.53-.29Z" fill="#febd86"/><path d="M31.09,16.67A4.66,4.66,0,0,1,31.73,12a4.8,4.8,0,0,1,1.46-1.34.88.88,0,0,1,.57-.18c.72,1,1.33,2,2.1,2.88a.14.14,0,0,1,0,.09l-4.77,3.27Z" fill="#fdd1a4"/><path d="M31.09,16.67l4.77-3.26,1.47,2.05c-1,.84-2.19,1.54-3.28,2.31-.26.19-.54.36-.8.55a.85.85,0,0,1-1.38-.21,2,2,0,0,0-.53-.73l-.12-.11h0c-.05-.2-.1-.4-.14-.61Z" fill="#febc86"/><path d="M37.33,15.46l-1.47-2.05v-.1a3.81,3.81,0,0,0,1.29-.79,15.52,15.52,0,0,0,2-1.47,4.63,4.63,0,0,1,1.56,2,33.49,33.49,0,0,1-3.42,2.36Z" fill="#af67d9"/><path d="M39.2,11.05a16.32,16.32,0,0,1-2.05,1.47,3.71,3.71,0,0,1-1.29.79c-.77-.91-1.38-1.93-2.1-2.88.06-.06.1-.15.16-.18a5.19,5.19,0,0,1,5.28.8Z" fill="#bd80e0"/><path d="M21.24,32.46a2,2,0,0,1,1.34.52c.55.41.7.41,1.22,0a2.36,2.36,0,0,1,3-.1c.77.51.78.51,1.53,0a2.42,2.42,0,0,1,2.87.11c.49.41.72.43,1.22,0a2.28,2.28,0,0,1,1.56-.55.77.77,0,0,1,.79.6.63.63,0,0,1-.46.8,6.5,6.5,0,0,0-1.45.71,2.27,2.27,0,0,1-2.51-.31.9.9,0,0,0-1.29,0,2.34,2.34,0,0,1-3.08,0,.86.86,0,0,0-1.24,0,2.26,2.26,0,0,1-3,0,1.38,1.38,0,0,0-.64-.29c-.49-.06-.87-.46-.83-.82s.4-.7,1-.7Z" fill="#8ac8fd"/><path d="M43.25,27.07a1.94,1.94,0,0,1,1.47.46c.67.47.76.47,1.4,0a2.31,2.31,0,0,1,2.61-.17,3.47,3.47,0,0,0,1.27.6.65.65,0,0,1,.47.8.78.78,0,0,1-.75.66,2.32,2.32,0,0,1-1.48-.52c-.55-.38-.86-.44-1.34,0a2.31,2.31,0,0,1-3.06,0,.87.87,0,0,0-1.21,0,2.74,2.74,0,0,1-1.36.57.81.81,0,0,1-.94-.68.75.75,0,0,1,.7-.84,1.45,1.45,0,0,0,.69-.31,2,2,0,0,1,1.53-.5Z" fill="#8ac8fd"/><path d="M13.94,38.48a2.13,2.13,0,0,1,1.53.56.92.92,0,0,0,1.22,0,2.24,2.24,0,0,1,3.09,0,1.29,1.29,0,0,0,.65.25.76.76,0,0,1,.75.81.82.82,0,0,1-.85.71,2.41,2.41,0,0,1-1.51-.57.87.87,0,0,0-1.16,0c-1.26.85-1.91.83-3.19,0a.86.86,0,0,0-1.17.06,2.09,2.09,0,0,1-1.5.56c-.42,0-.69-.18-.76-.6a.7.7,0,0,1,.58-.88,2.37,2.37,0,0,0,1-.47,1.86,1.86,0,0,1,1.33-.4Z" fill="#8ac8fd"/><path d="M7.43,27.07a1.83,1.83,0,0,1,1.49.47.93.93,0,0,0,1.33,0,2.33,2.33,0,0,1,3.07,0,1.62,1.62,0,0,0,.66.27.75.75,0,0,1,.68.85.8.8,0,0,1-.89.67,2.53,2.53,0,0,1-1.41-.58.81.81,0,0,0-1.16,0,2.36,2.36,0,0,1-3.15,0,.9.9,0,0,0-1.26,0,2.59,2.59,0,0,1-1.36.55.8.8,0,0,1-.91-.71.72.72,0,0,1,.73-.8,1.19,1.19,0,0,0,.64-.3,1.93,1.93,0,0,1,1.54-.52Z" fill="#8ac9fd"/><path d="M36.76,38.48a2.09,2.09,0,0,1,1.42.48c.59.45.77.46,1.37.06,1.23-.81,1.89-.79,3.14.09a1.15,1.15,0,0,0,.57.2.75.75,0,0,1,.69.85c0,.45-.28.64-.8.67a2.13,2.13,0,0,1-1.45-.55.86.86,0,0,0-1.25,0,2.26,2.26,0,0,1-3,.08c-.7-.46-.74-.46-1.46,0a2.24,2.24,0,0,1-1.39.47.81.81,0,0,1-.81-.7.74.74,0,0,1,.68-.81,1.42,1.42,0,0,0,.83-.35,2.06,2.06,0,0,1,1.44-.49Z" fill="#8ac8fd"/><path d="M31.22,17.27l.12.11Z" fill="#fefefe"/></svg>