<svg id="Слой_1" data-name="Слой 1" xmlns="http://www.w3.org/2000/svg" viewBox="0 0 54 54"><path d="M1,26.55c.56-.57,1-.6,1.66-.13a2.66,2.66,0,0,0,3.32,0,2.7,2.7,0,0,1,3.28,0,2.65,2.65,0,0,0,3.35,0,3.3,3.3,0,0,1,1.6-.55A3.43,3.43,0,0,1,16,26.5a2.66,2.66,0,0,0,3.08,0,2.79,2.79,0,0,1,3.54,0,2.69,2.69,0,0,0,3.09,0,2.77,2.77,0,0,1,3.53,0,2.64,2.64,0,0,0,3.08,0,3.11,3.11,0,0,1,2.34-.58,3.31,3.31,0,0,1,1.12.53,2.66,2.66,0,0,0,3.25,0,2.69,2.69,0,0,1,3.36,0,2.67,2.67,0,0,0,3.29,0,2.66,2.66,0,0,1,3.32,0A3,3,0,0,0,51,27c0,5.39,0,10.78,0,16.17,0,.75,0,1.44-.93,1.83H2.84A1.9,1.9,0,0,1,1,44.2V26.55Zm30.8,9.62a1.62,1.62,0,0,0,.91-.16,6.73,6.73,0,0,1,1.65-.68.49.49,0,0,0,.36-.65.7.7,0,0,0-.66-.54,2.53,2.53,0,0,0-1.58.43c-.66.39-.72.38-1.36,0a2.73,2.73,0,0,0-2.92,0,1,1,0,0,1-1.36,0,2.57,2.57,0,0,0-3,0,1,1,0,0,1-1.21,0,2.43,2.43,0,0,0-1.45-.49c-.51,0-.86.24-.9.61s.24.64.75.7a1.57,1.57,0,0,1,.73.28,2.52,2.52,0,0,0,2.82.06c.73-.45.81-.45,1.55,0a2.62,2.62,0,0,0,2.95-.08,1,1,0,0,1,1.25,0A2.33,2.33,0,0,0,31.8,36.17Zm11.26,5.21c.59,0,.84-.15.9-.54s-.2-.7-.76-.78a1,1,0,0,1-.47-.14,2.71,2.71,0,0,0-3.37,0,.76.76,0,0,1-.81,0c-.22-.1-.41-.23-.61-.34a2.53,2.53,0,0,0-2.43,0,2.52,2.52,0,0,1-1,.44c-.4,0-.74.48-.65.75a.82.82,0,0,0,.88.54,2.55,2.55,0,0,0,1.42-.45c.57-.37.7-.37,1.26,0a2.64,2.64,0,0,0,3,0,1,1,0,0,1,1.36,0,2.39,2.39,0,0,0,1.32.43Zm-29.14-2a2,2,0,0,0-1.14.28,3.91,3.91,0,0,1-1.19.48.6.6,0,0,0-.54.78c.08.36.37.49.79.49A2.41,2.41,0,0,0,13.26,41c.53-.37.83-.4,1.32,0a2.73,2.73,0,0,0,3.07,0,.88.88,0,0,1,1.19,0,2.19,2.19,0,0,0,1.4.47c.52,0,.9-.24.94-.58s-.34-.69-.77-.73a1.51,1.51,0,0,1-.69-.26,2.55,2.55,0,0,0-3,0,1,1,0,0,1-1.21,0,2.53,2.53,0,0,0-1.58-.51ZM43.2,29.46a2.15,2.15,0,0,0-1.46.45,1.5,1.5,0,0,1-.69.27c-.49.05-.75.34-.72.71s.39.61.87.6A2.6,2.6,0,0,0,42.61,31a1,1,0,0,1,1.24,0,2.61,2.61,0,0,0,3.08,0,1,1,0,0,1,1.32,0,2.43,2.43,0,0,0,1.37.44c.47,0,.83-.26.85-.62s-.25-.64-.7-.69a1.32,1.32,0,0,1-.69-.27,2.73,2.73,0,0,0-3,0c-.5.39-.76.36-1.31,0a2.51,2.51,0,0,0-1.53-.43Zm-35.71,0a2.05,2.05,0,0,0-1.47.4,1.41,1.41,0,0,1-.68.3c-.59.08-.9.4-.81.78a.91.91,0,0,0,1.14.52A3.07,3.07,0,0,0,6.82,31,1,1,0,0,1,8,31a2.54,2.54,0,0,0,3.11,0,1,1,0,0,1,1.25,0,2.57,2.57,0,0,0,1.41.48c.48,0,.84-.25.87-.59s-.23-.67-.71-.72a1.5,1.5,0,0,1-.69-.27,2.64,2.64,0,0,0-3,0,1,1,0,0,1-1.36,0,2,2,0,0,0-1.42-.42Z" fill="#b2d9fd"/><path d="M17.46,24.26c1.55-.85,3.17-1.59,4.76-2.38q3.63-1.8,7.26-3.57c.3-.15.36-.28.23-.56q-1.22-2.55-2.39-5.11c-.14-.29-.35-.31-.64-.31H17.62c-1.57,0-2.51-1.35-1.74-2.48A1.89,1.89,0,0,1,17.53,9H28.24A2,2,0,0,1,30,9.92l4.17,6.14c.34.51.7,1,1.06,1.51,0,0,0,.14.09.1s0-.1,0-.15a3.9,3.9,0,0,1,0-1.92h8a3.86,3.86,0,0,1-.44,2.61,5.19,5.19,0,0,1-3.48,2.41,6,6,0,0,1-2.77-1.25s0-.13-.11-.09,0,.1.06.13c.33.5.66,1,1,1.52a2.67,2.67,0,0,1-.36,3.51c0-.17-.14-.24-.3-.32a5.86,5.86,0,0,0-5.56.07.86.86,0,0,1-.9,0,5.84,5.84,0,0,0-5.78,0,.79.79,0,0,1-.81,0,5.89,5.89,0,0,0-5.82,0c-.17.1-.32.18-.5,0Z" fill="#f5a96c"/><path d="M50.08,45c.89-.39.93-1.08.93-1.83,0-5.39,0-10.78,0-16.17a4.31,4.31,0,0,0,1.57-.71,1,1,0,0,1,1-.09.7.7,0,0,1,.47.72q0,8.48,0,16.94c0,.68-.54,1.14-1.38,1.15S50.92,45,50.08,45Z" fill="#8ac8fd"/><path d="M17.46,24.26c.18.16.33.07.5,0a5.84,5.84,0,0,1,5.82,0,.79.79,0,0,0,.81,0,5.87,5.87,0,0,1,5.78,0,.88.88,0,0,0,.9,0,5.86,5.86,0,0,1,5.56-.08c.15.08.3.15.3.32a5.48,5.48,0,0,1-1.79,1.12l-.65.35a3.11,3.11,0,0,0-2.34.57,2.64,2.64,0,0,1-3.08,0,2.78,2.78,0,0,0-3.54,0,2.69,2.69,0,0,1-3.08,0,2.78,2.78,0,0,0-3.54,0,2.64,2.64,0,0,1-3.08,0,3.64,3.64,0,0,0-1.82-.65,32.53,32.53,0,0,1,3.25-1.58Z" fill="#e99b59"/><path d="M43.23,15.61h-8a4.36,4.36,0,0,1,3-3.33A3.17,3.17,0,0,1,39.51,12a.79.79,0,0,0,.39.19,5.56,5.56,0,0,1,2.33,1.45,4.58,4.58,0,0,1,1,1.95v0Z" fill="#cb97e5"/><path d="M39.31,20.63a5.17,5.17,0,0,0,3.48-2.42,3.82,3.82,0,0,0,.44-2.6v0l2.18,0a3.58,3.58,0,0,1-1,3.41,5.51,5.51,0,0,1-4.76,1.7A1.87,1.87,0,0,1,39.31,20.63Z" fill="#e99b59"/><path d="M45.4,15.6l-2.18,0a4.58,4.58,0,0,0-1-1.95,5.49,5.49,0,0,0-2.33-1.45.79.79,0,0,1-.39-.19,5,5,0,0,1,2.86.29,4.41,4.41,0,0,1,3,3.32Z" fill="#bd81e0"/><path d="M31.8,36.17a2.27,2.27,0,0,1-1.49-.47,1,1,0,0,0-1.25,0,2.61,2.61,0,0,1-2.95.08c-.74-.42-.82-.42-1.55,0a2.52,2.52,0,0,1-2.82-.06,1.57,1.57,0,0,0-.73-.28c-.51-.06-.79-.36-.75-.7s.39-.59.9-.61a2.4,2.4,0,0,1,1.45.5,1,1,0,0,0,1.2,0,2.6,2.6,0,0,1,3,0,1,1,0,0,0,1.36,0,2.73,2.73,0,0,1,2.92,0c.64.4.7.41,1.36,0a2.53,2.53,0,0,1,1.58-.43.71.71,0,0,1,.66.54.49.49,0,0,1-.36.65,6.39,6.39,0,0,0-1.65.69A1.71,1.71,0,0,1,31.8,36.17Z" fill="#8ac8fd"/><path d="M43.07,41.38A2.34,2.34,0,0,1,41.75,41a1,1,0,0,0-1.37,0,2.64,2.64,0,0,1-3,0c-.56-.37-.69-.37-1.26,0a2.55,2.55,0,0,1-1.42.45.8.8,0,0,1-.87-.54c-.1-.27.24-.7.64-.75a2.52,2.52,0,0,0,1-.44,2.53,2.53,0,0,1,2.43,0c.21.11.4.24.61.34a.8.8,0,0,0,.82,0,2.68,2.68,0,0,1,3.36,0,1,1,0,0,0,.47.14c.56.08.81.35.76.78s-.31.54-.9.54Z" fill="#8ac8fd"/><path d="M13.93,39.35a2.51,2.51,0,0,1,1.57.51,1,1,0,0,0,1.21,0,2.55,2.55,0,0,1,3,0,1.48,1.48,0,0,0,.69.26c.43,0,.8.44.77.73s-.41.57-.93.58a2.14,2.14,0,0,1-1.41-.47.86.86,0,0,0-1.18,0,2.74,2.74,0,0,1-3.08,0c-.49-.38-.78-.35-1.32,0a2.41,2.41,0,0,1-1.42.43c-.41,0-.71-.13-.79-.49a.6.6,0,0,1,.54-.78,3.91,3.91,0,0,0,1.19-.48,2,2,0,0,1,1.15-.28Z" fill="#8ac8fd"/><path d="M43.2,29.46a2.43,2.43,0,0,1,1.53.44c.55.37.82.4,1.32,0a2.72,2.72,0,0,1,3,0,1.25,1.25,0,0,0,.69.27.71.71,0,0,1,.71.69.77.77,0,0,1-.86.62,2.45,2.45,0,0,1-1.37-.44,1,1,0,0,0-1.32,0,2.61,2.61,0,0,1-3.08,0,1,1,0,0,0-1.24,0,2.6,2.6,0,0,1-1.41.48c-.48,0-.84-.25-.87-.59s.23-.66.72-.72a1.45,1.45,0,0,0,.69-.27,2.12,2.12,0,0,1,1.47-.44Z" fill="#8ac8fd"/><path d="M7.5,29.47a2.06,2.06,0,0,1,1.41.42,1,1,0,0,0,1.36,0,2.63,2.63,0,0,1,3,0,1.42,1.42,0,0,0,.68.27c.49.06.75.34.71.72a.76.76,0,0,1-.87.59,2.54,2.54,0,0,1-1.4-.48,1,1,0,0,0-1.25,0A2.54,2.54,0,0,1,8,31a1,1,0,0,0-1.21,0,2.92,2.92,0,0,1-1.15.47A.91.91,0,0,1,4.53,31c-.09-.38.22-.7.81-.77A1.47,1.47,0,0,0,6,29.87a2.08,2.08,0,0,1,1.48-.4Z" fill="#8ac8fd"/><path d="M35.3,17.52c.05.05.09.12,0,.15s-.07-.06-.09-.1Z" fill="#fefefe"/><path d="M36.49,19.41c-.06,0-.11-.09-.06-.12s.08.05.11.09Z" fill="#fefefe"/></svg>