<svg id="Слой_1" data-name="Слой 1" xmlns="http://www.w3.org/2000/svg" xmlns:xlink="http://www.w3.org/1999/xlink" viewBox="0 0 54 54"><defs><clipPath id="clip-path"><rect x="1" y="9" width="53" height="36" rx="15" fill="none"/></clipPath></defs><g clip-path="url(#clip-path)"><path d="M51,26.15a3,3,0,0,0,1.36-.63c.69-.48,1.13-.42,1.63.21V45.87a1.67,1.67,0,0,1-1.77.84c-.69-.05-1.38,0-2.07,0A1.86,1.86,0,0,0,51,44.94q0-9.4,0-18.79Z" fill="#8ac8fd"/><path d="M51,26.15q0,9.39,0,18.79a1.86,1.86,0,0,1-.85,1.75H2.67C1.4,46.69,1,46.3,1,45.07V26.24c0-.39.06-.77.44-.94a1.09,1.09,0,0,1,1.15.2,2.45,2.45,0,0,0,3.34.05A2.92,2.92,0,0,1,8,24.93a3.46,3.46,0,0,1,1.23.61,2.42,2.42,0,0,0,3.35,0,2.42,2.42,0,0,1,3.24,0,2.44,2.44,0,0,0,3.4,0,2.42,2.42,0,0,1,3.24,0,2.43,2.43,0,0,0,3.36,0,2.76,2.76,0,0,1,1.75-.63,2.92,2.92,0,0,1,1.52.62,2.16,2.16,0,0,0,1.26.6c.51.69,1,1.38,1.55,2.06a2.55,2.55,0,0,0,3.33.71c.58-.3,1.13-.64,1.7-.95l4.92-2.73c.24.16.49.31.73.48a2.46,2.46,0,0,0,2.88,0,3,3,0,0,1,2-.78,2.4,2.4,0,0,1,1.5.58,2.77,2.77,0,0,0,2,.65ZM31.83,36.71a2.64,2.64,0,0,0,1.37-.48,2.34,2.34,0,0,1,1-.44.73.73,0,0,0,.09-1.41,2,2,0,0,0-1.77.47,1,1,0,0,1-1.32,0,2.19,2.19,0,0,0-2.95,0,1,1,0,0,1-1.34,0,2.29,2.29,0,0,0-3,0,1,1,0,0,1-1.28,0,3.05,3.05,0,0,0-1.25-.55.86.86,0,0,0-1.05.59c-.09.42.23.79.74.9a1.13,1.13,0,0,1,.52.2,2.36,2.36,0,0,0,3.34,0,.66.66,0,0,1,.89,0,4.94,4.94,0,0,0,1,.57A2.4,2.4,0,0,0,29.16,36a.75.75,0,0,1,1.06,0,2.63,2.63,0,0,0,1.61.64ZM43.17,29a2.33,2.33,0,0,0-1.23.42,2.4,2.4,0,0,1-1,.51.65.65,0,0,0-.54.83.74.74,0,0,0,.85.63,2.52,2.52,0,0,0,1.41-.54.83.83,0,0,1,1.23-.05,2.36,2.36,0,0,0,3.14,0,.78.78,0,0,1,1.15,0,2.47,2.47,0,0,0,1.45.59.83.83,0,0,0,.89-.59.71.71,0,0,0-.56-.87,1.89,1.89,0,0,1-.81-.3,2.3,2.3,0,0,0-3.1,0,.87.87,0,0,1-1.2,0A2.57,2.57,0,0,0,43.17,29ZM7.37,29a2.3,2.3,0,0,0-1.23.44,2.45,2.45,0,0,1-1.06.49.65.65,0,0,0-.54.83.79.79,0,0,0,.86.63,2.52,2.52,0,0,0,1.45-.58A.79.79,0,0,1,8,30.71a2.41,2.41,0,0,0,3.23,0,.76.76,0,0,1,1.1,0,2.49,2.49,0,0,0,1.45.59.71.71,0,0,0,.84-.49c.12-.34.1-.74-.29-.86a11.12,11.12,0,0,1-1.55-.76,2.14,2.14,0,0,0-2.45.26,1,1,0,0,1-1.42,0A2.77,2.77,0,0,0,7.37,29ZM36.83,40.34a2,2,0,0,0-1.51.46,1.34,1.34,0,0,1-.78.35.76.76,0,0,0-.72.78.79.79,0,0,0,.84.72A2,2,0,0,0,36,42.16a1,1,0,0,1,1.47,0,2.28,2.28,0,0,0,2.77.07c.79-.53.82-.54,1.64,0a2.06,2.06,0,0,0,1.29.42A.74.74,0,0,0,44,42a.68.68,0,0,0-.6-.8,1.87,1.87,0,0,1-.87-.39,2.39,2.39,0,0,0-3,.09.82.82,0,0,1-1.15.05,2,2,0,0,0-1.56-.57Zm-22.9,0a2.13,2.13,0,0,0-1.5.51,1.3,1.3,0,0,1-.58.31c-.6.08-.87.38-.81.87a.87.87,0,0,0,1.08.62,3,3,0,0,0,1.16-.52.9.9,0,0,1,1.32,0,2.31,2.31,0,0,0,2.94,0,1,1,0,0,1,1.43,0,2,2,0,0,0,1.47.49.75.75,0,0,0,.73-.67.62.62,0,0,0-.47-.75,4.17,4.17,0,0,1-1.4-.69,2,2,0,0,0-.78-.21,2.59,2.59,0,0,0-1.95.62.75.75,0,0,1-1.07-.06,2.14,2.14,0,0,0-1.58-.56Z" fill="#b2d9fd"/><path d="M41.89,25.22,37,28c-.56.32-1.12.65-1.69.95a2.56,2.56,0,0,1-3.34-.71c-.53-.67-1-1.37-1.55-2.06-.74-1-1.47-2.09-2.24-3.13a20,20,0,0,0-1.42-1.9.7.7,0,0,0-.94-.08.66.66,0,0,0-.25.92c.1.19.29.34.31.57a2.31,2.31,0,0,0-1,.44,1.17,1.17,0,0,1-1.26,0,5.16,5.16,0,0,0-5.36,0,1.17,1.17,0,0,1-1.26,0,5.25,5.25,0,0,0-2.68-.74c-.58,0-1.12.17-1.68.19.95-.67,2-1.16,3-1.74,3.06-1.73,6.13-3.44,9.19-5.18a3.83,3.83,0,0,1,4.64.59,5.11,5.11,0,0,1-.27-2.92h3.5l4.49,0c0,.32,0,.63,0,1a4.77,4.77,0,0,1-2.73,4.33c-.36.2-.79.22-1.09.51a5.75,5.75,0,0,1-2.48-1.14c-.1-.08-.17-.17-.31-.18s0-.15-.12-.18,0,0,0,0h0l0,0a.2.2,0,0,0,.09.21c.46,1,1.05,1.84,1.59,2.76.79,1.35,1.6,2.69,2.38,4.06.18.32.32.32.63.15,2.15-1.23,4.32-2.44,6.48-3.65a2.1,2.1,0,0,1,2.49.43,1.9,1.9,0,0,1,0,2.42,4.48,4.48,0,0,1-1.23.82c-.3.19-.61.36-.92.55Z" fill="#fdd1a4"/><path d="M12.58,22.4c.56,0,1.1-.21,1.67-.2a5.39,5.39,0,0,1,2.69.75,1.17,1.17,0,0,0,1.26,0,5.16,5.16,0,0,1,5.36,0,1.17,1.17,0,0,0,1.26,0,2.25,2.25,0,0,1,1-.43,19.71,19.71,0,0,1,1.76,2.4,2.81,2.81,0,0,0-1.75.62,2.41,2.41,0,0,1-3.36,0,2.42,2.42,0,0,0-3.24,0,2.44,2.44,0,0,1-3.4,0,2.41,2.41,0,0,0-3.24,0,2.43,2.43,0,0,1-3.35,0A3.4,3.4,0,0,0,8,24.92C9.52,24,11,23.15,12.58,22.4Z" fill="#febc86"/><path d="M37.14,13.19c-1.5,0-3,0-4.49,0h-3.5a4.86,4.86,0,0,1,4.25-4s.07.08.11.1a5.09,5.09,0,0,1,3.62,3.94v0Z" fill="#ca97e6"/><path d="M33.31,19c.3-.29.73-.31,1.09-.5a4.77,4.77,0,0,0,2.73-4.33c0-.32,0-.64,0-1v0h2.16a5.09,5.09,0,0,1-1.13,4.13A5.32,5.32,0,0,1,35.08,19a3.78,3.78,0,0,1-1.77,0Z" fill="#febd86"/><path d="M39.29,13.16H37.13a5.09,5.09,0,0,0-3.62-3.94s-.07-.07-.11-.1a3.84,3.84,0,0,1,2.1.08A4.86,4.86,0,0,1,39.29,13.16Z" fill="#bd80e0"/><path d="M31.83,36.71a2.57,2.57,0,0,1-1.61-.64.75.75,0,0,0-1.06,0,2.38,2.38,0,0,1-2.43.51,4.26,4.26,0,0,1-1-.57.66.66,0,0,0-.89,0,2.36,2.36,0,0,1-3.34,0,1.12,1.12,0,0,0-.52-.19c-.51-.11-.83-.49-.74-.9a.86.86,0,0,1,1.05-.6,3,3,0,0,1,1.25.56,1,1,0,0,0,1.27,0,2.29,2.29,0,0,1,3,0,1,1,0,0,0,1.35,0,2.19,2.19,0,0,1,2.95,0,1,1,0,0,0,1.32,0,2,2,0,0,1,1.76-.46.66.66,0,0,1,.5.73.66.66,0,0,1-.58.67,2.36,2.36,0,0,0-1,.45,2.82,2.82,0,0,1-1.37.48Z" fill="#8ac9fd"/><path d="M43.17,29a2.62,2.62,0,0,1,1.63.58.87.87,0,0,0,1.2,0,2.3,2.3,0,0,1,3.1,0,1.89,1.89,0,0,0,.81.3.71.71,0,0,1,.56.87.85.85,0,0,1-.89.6,2.54,2.54,0,0,1-1.45-.6.78.78,0,0,0-1.15,0,2.38,2.38,0,0,1-3.14,0,.82.82,0,0,0-1.23,0,2.45,2.45,0,0,1-1.41.54.74.74,0,0,1-.85-.63.65.65,0,0,1,.54-.83,2.44,2.44,0,0,0,1-.5A2.17,2.17,0,0,1,43.17,29Z" fill="#8ac8fd"/><path d="M7.37,29a2.77,2.77,0,0,1,1.54.53,1,1,0,0,0,1.42,0,2.15,2.15,0,0,1,2.46-.26,11.14,11.14,0,0,0,1.55.76c.38.12.4.52.28.86a.7.7,0,0,1-.84.49,2.56,2.56,0,0,1-1.45-.59.76.76,0,0,0-1.1,0,2.41,2.41,0,0,1-3.23,0,.78.78,0,0,0-1.15.05,2.52,2.52,0,0,1-1.45.58.79.79,0,0,1-.86-.63.66.66,0,0,1,.54-.84,2.33,2.33,0,0,0,1.06-.48A2.22,2.22,0,0,1,7.37,29Z" fill="#8ac8fd"/><path d="M36.83,40.34a2.05,2.05,0,0,1,1.56.58.82.82,0,0,0,1.15-.05,2.39,2.39,0,0,1,3-.09,1.87,1.87,0,0,0,.87.39.68.68,0,0,1,.6.8.73.73,0,0,1-.76.67,2,2,0,0,1-1.29-.42c-.82-.53-.85-.52-1.64,0a2.3,2.3,0,0,1-2.77-.07,1,1,0,0,0-1.47,0,2.06,2.06,0,0,1-1.37.49.79.79,0,0,1-.84-.72.75.75,0,0,1,.72-.78,1.4,1.4,0,0,0,.78-.35,2,2,0,0,1,1.51-.46Z" fill="#8ac8fd"/><path d="M13.93,40.33a2.12,2.12,0,0,1,1.57.56.75.75,0,0,0,1.07.06,2.59,2.59,0,0,1,1.95-.62,2.1,2.1,0,0,1,.79.21,4.07,4.07,0,0,0,1.4.69.62.62,0,0,1,.47.75.75.75,0,0,1-.73.67A2.1,2.1,0,0,1,19,42.17a1,1,0,0,0-1.42,0,2.31,2.31,0,0,1-2.94,0c-.55-.4-.78-.41-1.33,0a2.9,2.9,0,0,1-1.16.52A.86.86,0,0,1,11.05,42c-.07-.49.2-.8.8-.88a1.21,1.21,0,0,0,.58-.31,2.19,2.19,0,0,1,1.5-.51Z" fill="#8ac8fd"/><path d="M27.61,24.91a20.52,20.52,0,0,0-1.76-2.4c0-.23-.21-.38-.31-.57a.66.66,0,0,1,.25-.92.69.69,0,0,1,.94.08A21.94,21.94,0,0,1,28.16,23c.76,1,1.49,2.09,2.23,3.13a2.19,2.19,0,0,1-1.26-.6A2.92,2.92,0,0,0,27.61,24.91Z" fill="#f5a96d"/><path d="M30.49,17.69a.2.2,0,0,1-.09-.21.19.19,0,0,1,.13.18Z" fill="#fefefe"/><path d="M30.4,17.48l0-.05s0,0,0,0A.05.05,0,0,1,30.4,17.48Z" fill="#fefefe"/></g></svg>