<svg id="Слой_1" data-name="Слой 1" xmlns="http://www.w3.org/2000/svg" viewBox="0 0 54 54"><path d="M29.06,9c.47.09,1,.17,1.42.28a11.62,11.62,0,0,1,7.35,17.41c-.43.72-.87,1.44-1.33,2.15a7,7,0,0,0-1.17,4,3.39,3.39,0,0,1-2.13,3.42,4,4,0,0,1-.75.14c-1.51,0-3,0-4.52,0V32.2a1,1,0,0,0,.9-.5L31.77,27q1.17-1.86,2.33-3.74a1,1,0,0,0-.46-1.53c-1.44-.58-2.88-1.17-4.33-1.73a.44.44,0,0,1-.33-.48c0-1.73,0-3.47,0-5.2a1,1,0,0,0-1-1.1V9Z" fill="#fecb33"/><path d="M27.93,32.2v4.23H24.51a6.32,6.32,0,0,1-1.84-.17,3.2,3.2,0,0,1-2.09-2.6c-.09-.55,0-1.1-.08-1.65a6.94,6.94,0,0,0-1.08-3.15c-.61-1-1.3-1.92-1.82-3A11.59,11.59,0,0,1,20.12,12a11.2,11.2,0,0,1,6.47-2.94c.08,0,.17,0,.22-.07h1.12v4.22h0a1.08,1.08,0,0,0-1,.62c-.27.46-.56.92-.84,1.37Q24,18.63,21.83,22.05a1,1,0,0,0,.56,1.68c1.39.56,2.77,1.12,4.16,1.66a.45.45,0,0,1,.33.5c0,1.73,0,3.46,0,5.2a1,1,0,0,0,1.05,1.11Z" fill="#fdda41"/><path d="M10,20.32a1.23,1.23,0,0,1,1.37-.78c.58,0,1.17,0,1.75,0a1.05,1.05,0,1,1,0,2.1c-.57,0-1.15,0-1.72,0a1.24,1.24,0,0,1-1.4-.78v-.56Z" fill="#fda833"/><path d="M27.93,36.4c1.51,0,3,0,4.52,0a4,4,0,0,0,.75-.14v2.4c-1,0-2.09,0-3.13,0a1.05,1.05,0,1,0,0,2.1H33.2a10.33,10.33,0,0,1-.05,1.67,3.16,3.16,0,0,1-3,2.55H27.94V36.4Z" fill="#c4c8f6"/><path d="M27.94,36.43V45c-.74,0-1.47,0-2.21,0a3.13,3.13,0,0,1-3-2.54,10.5,10.5,0,0,1-.07-1.68h3.16a1.05,1.05,0,1,0,0-2.1c-1.05,0-2.11,0-3.16,0,0-.8,0-1.61,0-2.42a6,6,0,0,0,1.84.17Z" fill="#e0e3fa"/><path d="M33.2,40.77H30.07a1.05,1.05,0,1,1,0-2.1c1,0,2.09,0,3.13,0v2.1Z" fill="#a7aef0"/><path d="M22.66,38.67c1.05,0,2.11,0,3.16,0a1.05,1.05,0,1,1,0,2.1H22.66v-2.1Z" fill="#c4c8f6"/><path d="M16.2,27.93a1,1,0,0,1-.52,1c-.62.36-1.23.72-1.86,1.07a1,1,0,0,1-1.41-.41,1,1,0,0,1,.37-1.42c.61-.37,1.23-.73,1.85-1.07a1,1,0,0,1,1.57.87Z" fill="#fda834"/><path d="M40.88,26.92a1,1,0,0,1,.53.16c.59.34,1.18.67,1.76,1a1,1,0,0,1,.42,1.46,1,1,0,0,1-1.48.36c-.61-.35-1.22-.7-1.82-1.06a1,1,0,0,1-.44-1.15,1,1,0,0,1,1-.79Z" fill="#fd9a25"/><path d="M13.33,11.1a1.16,1.16,0,0,1,.58.18l1.7,1A1,1,0,0,1,16,13.75a1,1,0,0,1-1.48.34c-.62-.35-1.25-.7-1.85-1.07a.93.93,0,0,1-.4-1.13,1.05,1.05,0,0,1,1-.79Z" fill="#fda834"/><path d="M39.81,13.19a.93.93,0,0,1,.47-.85c.65-.38,1.29-.76,1.95-1.12a1,1,0,0,1,1.36.41A1,1,0,0,1,43.3,13c-.65.4-1.32.8-2,1.15A1,1,0,0,1,39.81,13.19Z" fill="#fd9a25"/><path d="M43.88,21.65c-.35,0-.7,0-1.05,0a1.05,1.05,0,0,1,0-2.1c.71,0,1.43,0,2.14,0a1.05,1.05,0,0,1,0,2.1C44.61,21.66,44.24,21.65,43.88,21.65Z" fill="#fd9924"/><path d="M27.93,13.22A1,1,0,0,1,29,14.32c0,1.73,0,3.47,0,5.2a.44.44,0,0,0,.33.48c1.45.56,2.89,1.15,4.33,1.73a1,1,0,0,1,.46,1.53c-.77,1.25-1.55,2.49-2.33,3.74l-2.94,4.69a1,1,0,0,1-.9.51h0q0-9.48,0-19Z" fill="#fd9923"/><path d="M27.94,13.22q0,9.5,0,19a1,1,0,0,1-1.05-1.11c0-1.74,0-3.47,0-5.21a.45.45,0,0,0-.32-.49l-4.17-1.66A1,1,0,0,1,21.83,22c1.43-2.28,2.86-4.55,4.28-6.83.29-.45.57-.91.84-1.37A1.08,1.08,0,0,1,27.94,13.22Z" fill="#fda732"/></svg>