<svg id="Слой_1" data-name="Слой 1" xmlns="http://www.w3.org/2000/svg" viewBox="0 0 54 54"><path d="M25.33,19.76a3.3,3.3,0,0,0,.56-.56A25.49,25.49,0,0,1,31.61,15a24.89,24.89,0,0,1,6.19-2.39,18,18,0,0,1,2.72-.47c.08,0,.17,0,.17-.12h.19a.21.21,0,0,0,.31,0h2.06c.1.15.36.14.37.36l-.19.16L37.37,18.4l-.18.21h0c-.06-.06-.11-.13-.17-.18a3.38,3.38,0,0,0-5,.77,3.12,3.12,0,0,0,.5,3.95s0,0,0,.05-.19.15-.28.24l-8.94,8.68-.28.24c-.14,0-.21-.12-.29-.2C21.44,31,20.22,29.74,19,28.56c-.61-.58-.73-1.08-.11-1.73,1.54-1.67,3.08-3.33,4.61-5,.63-.68,1.24-1.38,1.86-2.07Z" fill="#cccfd1"/><path d="M37.19,18.61l.18-.21,6.06-5.88.19-.16c.23,0,.17.33.38.37V14.3c-.11,0-.12.09-.13.17a16.59,16.59,0,0,1-.68,4A23.45,23.45,0,0,1,41.88,22a23.78,23.78,0,0,1-2.08,3.64,22.87,22.87,0,0,1-2.62,3.2c-.34.35-.7.68-1.06,1-.08.08-.17.15-.18.27-.2,0-.28.15-.4.25l-4.58,4c-.76.67-1.55,1.31-2.28,2a1.28,1.28,0,0,1-.94.37.89.89,0,0,1-.59-.23l-4.07-3.94a.38.38,0,0,1-.11-.18l.28-.25,8.94-8.68.28-.24a3.43,3.43,0,0,0,2.9.86,3.24,3.24,0,0,0,2.72-3.62,3.45,3.45,0,0,0-.9-1.82Z" fill="#ebeef0"/><path d="M12.31,42.71c-.17-.07-.18-.27-.31-.38v-.6c.29-.64.45-1.32.69-2a36.76,36.76,0,0,1,1.94-4.69,4,4,0,0,1,2.85-2.26,4.29,4.29,0,0,1,3.76.89c.07.06.17.11.2.22-.17,0-.25.14-.35.24l-8.56,8.31a2.62,2.62,0,0,0-.22.25Z" fill="#dd8401"/><path d="M25.33,19.76c-.62.69-1.23,1.39-1.86,2.07-1.53,1.67-3.07,3.33-4.61,5l-2.45-.36c-.63-.09-1.25-.16-1.88-.26a1,1,0,0,1-.81-.66.92.92,0,0,1,.26-1,16.69,16.69,0,0,1,8.31-4.41,16.39,16.39,0,0,1,3-.36Z" fill="#1e83d3"/><path d="M28.68,36.34c.73-.71,1.52-1.34,2.28-2q2.28-2,4.58-4c.12-.1.2-.26.4-.25a18.92,18.92,0,0,1-.48,3.35A16.11,16.11,0,0,1,31.13,41a1.07,1.07,0,0,1-1.19.3,1,1,0,0,1-.67-.93c-.18-1.34-.39-2.67-.59-4Z" fill="#2296f2"/><path d="M12.31,42.71c.07-.08.14-.17.22-.25l8.56-8.31c.1-.1.18-.23.35-.24a4,4,0,0,1,.34,5.32,5.42,5.42,0,0,1-2,1.42,49.59,49.59,0,0,1-6.39,2.29A1,1,0,0,1,12.31,42.71Z" fill="#fe9801"/><path d="M32.46,23.14a3.12,3.12,0,0,1-.5-3.95,3.39,3.39,0,0,1,5-.77c.06,0,.11.12.17.18a1.49,1.49,0,0,1-.12.14L32.6,23Z" fill="#1e83d4"/><path d="M32.46,23.14,32.6,23,37,18.74a1.49,1.49,0,0,0,.12-.14h0a3.45,3.45,0,0,1,.9,1.82,3.25,3.25,0,0,1-2.72,3.62,3.48,3.48,0,0,1-2.9-.86v-.05Z" fill="#2296f2"/></svg>