<?xml version="1.0" encoding="UTF-8"?><svg id="a" xmlns="http://www.w3.org/2000/svg" viewBox="0 0 32 32"><path d="M4.83,9.75c-1.56,0-2.83,1.27-2.83,2.83v8.42c0,2.83,0,4.24,.88,5.12s2.29,.88,5.12,.88h15.26c2.83,0,4.24,0,5.12-.88s.88-2.29,.88-5.12V12.58c0-1.56-1.27-2.83-2.83-2.83-1.05,0-2.02-.58-2.51-1.51l-1.22-2.32c-.43-.82-.65-1.24-1-1.5-.12-.09-.25-.17-.38-.23-.4-.18-.86-.18-1.8-.18h-7.78c-.93,0-1.4,0-1.8,.18-.14,.06-.26,.14-.38,.23-.35,.27-.56,.68-1,1.5l-1.22,2.32c-.49,.93-1.46,1.51-2.51,1.51Zm14.85,7.19c0,1.97-1.72,3.75-4.06,3.75s-4.06-1.78-4.06-3.75,1.72-3.75,4.06-3.75,4.06,1.78,4.06,3.75Zm2,0c0,3.18-2.71,5.75-6.06,5.75s-6.06-2.57-6.06-5.75,2.71-5.75,6.06-5.75,6.06,2.57,6.06,5.75Z" fill-rule="evenodd"/></svg>