<?xml version="1.0" encoding="UTF-8"?><svg id="a" xmlns="http://www.w3.org/2000/svg" viewBox="0 0 32 32"><path d="M9.51,14.65c-4.68,.33-4.68,7.14,0,7.47h1.92" fill="none" stroke="#000" stroke-linecap="round" stroke-linejoin="round" stroke-width="1.5"/><path d="M9.56,14.65c-3.21-8.93,10.33-12.5,11.88-3.12,4.33,.55,6.08,6.32,2.8,9.19-1,.91-2.29,1.41-3.64,1.4h-.09" fill="none" stroke="#000" stroke-linecap="round" stroke-linejoin="round" stroke-width="1.5"/><path d="M20.97,20.06c0,.74-.16,1.44-.46,2.06-.08,.18-.17,.35-.27,.51-.86,1.45-2.45,2.43-4.27,2.43s-3.41-.98-4.27-2.43c-.1-.16-.19-.33-.27-.51-.3-.62-.46-1.32-.46-2.06,0-2.76,2.24-5,5-5s5,2.24,5,5Z" fill="none" stroke="#000" stroke-linecap="round" stroke-linejoin="round" stroke-width="1.5"/><path d="M14.41,20.06l.99,.99,2.13-1.97" fill="none" stroke="#000" stroke-linecap="round" stroke-linejoin="round" stroke-width="1.5"/></svg>