<?xml version="1.0" encoding="UTF-8"?><svg id="a" xmlns="http://www.w3.org/2000/svg" viewBox="0 0 32 32"><path d="M13.17,19.77v-3.44" fill="none" stroke="#000" stroke-linecap="round" stroke-width="1.5"/><path d="M17.83,19.77v-3.44" fill="none" stroke="#000" stroke-linecap="round" stroke-width="1.5"/><path d="M5,10.59H26c-1.4,0-2.11,0-2.61,.34-.22,.15-.41,.33-.55,.55-.34,.5-.34,1.21-.34,2.61v7.41c0,1.89,0,2.83-.59,3.41-.59,.59-1.53,.59-3.41,.59h-6c-1.89,0-2.83,0-3.41-.59-.59-.59-.59-1.53-.59-3.41v-7.41c0-1.4,0-2.11-.34-2.61-.15-.22-.33-.41-.55-.55-.5-.34-1.21-.34-2.61-.34h0Z" fill="none" stroke="#000" stroke-linecap="round" stroke-width="1.5"/><path d="M13.25,6.43c.13-.12,.43-.23,.83-.31,.41-.08,.91-.12,1.42-.12s1.01,.04,1.42,.12c.41,.08,.7,.18,.83,.31" fill="none" stroke="#000" stroke-linecap="round" stroke-width="1.5"/></svg>