<?xml version="1.0" encoding="UTF-8"?><svg id="a" xmlns="http://www.w3.org/2000/svg" viewBox="0 0 32 32"><path d="M16.03,6.09c-3.71,0-6.73,3.01-6.73,6.71v3.23c0,.68-.29,1.72-.64,2.3l-1.29,2.14c-.8,1.32-.25,2.78,1.21,3.28,4.84,1.61,10.05,1.61,14.89,0,1.36-.45,1.95-2.05,1.21-3.28l-1.29-2.14c-.34-.58-.63-1.62-.63-2.3v-3.23c0-3.69-3.03-6.71-6.73-6.71Z" fill="none" stroke="#000" stroke-linecap="round" stroke-miterlimit="10" stroke-width="1.5"/><path d="M18.1,6.41c-.35-.1-.71-.18-1.08-.22-1.08-.13-2.11-.06-3.07,.22,.33-.83,1.13-1.41,2.08-1.41s1.75,.58,2.08,1.41Z" fill="none" stroke="#000" stroke-linecap="round" stroke-linejoin="round" stroke-width="1.5"/><path d="M19.39,24.14c0,1.85-1.51,3.35-3.37,3.35-.92,0-1.77-.38-2.38-.98-.61-.6-.99-1.45-.99-2.37" fill="none" stroke="#000" stroke-miterlimit="10" stroke-width="1.5"/></svg>