<?xml version="1.0" encoding="UTF-8"?><svg id="a" xmlns="http://www.w3.org/2000/svg" viewBox="0 0 32 32"><path d="M5.17,5.17c-1.17,1.17-1.17,3.06-1.17,6.83v8c0,3.77,0,5.66,1.17,6.83,1.17,1.17,3.06,1.17,6.83,1.17h8c3.77,0,5.66,0,6.83-1.17,1.17-1.17,1.17-3.06,1.17-6.83V12c0-3.02,0-4.83-.6-6.03V22c-.14,0-.21,0-.28,0-.97-.03-1.89-.41-2.6-1.07-.05-.05-.1-.1-.2-.2h0l-.9-.9c-1.14-1.14-1.71-1.71-2.4-1.78-.15-.02-.3-.02-.45,0-.69,.08-1.26,.65-2.4,1.78l-.14,.14c-.9,.9-1.35,1.35-1.84,1.28-.03,0-.06-.01-.09-.02-.49-.12-.74-.7-1.24-1.87h0l-.14-.32c-1.05-2.46-1.58-3.69-2.62-3.89-1.04-.2-1.99,.75-3.88,2.64l-2.42,2.42V4.69c-.23,.13-.44,.29-.63,.48Z" fill-rule="evenodd"/><path d="M12,5h8c1.91,0,3.25,0,4.26,.14,.98,.13,1.5,.37,1.87,.74,.37,.37,.61,.89,.74,1.87,.14,1.01,.14,2.34,.14,4.26v8c0,1.91,0,3.25-.14,4.26-.13,.98-.37,1.5-.74,1.87s-.89,.61-1.87,.74c-1.01,.14-2.34,.14-4.26,.14H12c-1.91,0-3.25,0-4.26-.14-.98-.13-1.5-.37-1.87-.74-.37-.37-.61-.89-.74-1.87-.14-1.01-.14-2.34-.14-4.26V12c0-1.91,0-3.25,.14-4.26,.13-.98,.37-1.5,.74-1.87,.37-.37,.89-.61,1.87-.74,1.01-.14,2.34-.14,4.26-.14Z" fill="none" stroke="#000" stroke-width="2"/><circle cx="19.6" cy="12.4" r="2.4"/></svg>