<svg id="Слой_1" data-name="Слой 1" xmlns="http://www.w3.org/2000/svg" viewBox="0 0 32 32"><path d="M7.5,10.75a4.43,4.43,0,0,1,1-3.11,4.08,4.08,0,0,1,3-1.14v7.11a1.25,1.25,0,0,0,2.09.93h0l2.15-2,2.15,2h0A1.25,1.25,0,0,0,20,13.61V6.5a4.08,4.08,0,0,1,3,1.14,4.43,4.43,0,0,1,1,3.11v10a4.43,4.43,0,0,1-1,3.11A4.21,4.21,0,0,1,19.75,25h-8a4.21,4.21,0,0,1-3.26-1.14,4.43,4.43,0,0,1-1-3.11Zm11-4.25H13V13l1.9-1.75a1.24,1.24,0,0,1,1.7,0L18.5,13ZM19.25,5h.5a5.69,5.69,0,0,1,4.36,1.61,5.91,5.91,0,0,1,1.39,4.14v10a5.91,5.91,0,0,1-1.39,4.14,5.69,5.69,0,0,1-4.36,1.61h-8a5.69,5.69,0,0,1-4.36-1.61A5.91,5.91,0,0,1,6,20.75v-10A5.91,5.91,0,0,1,7.39,6.61,5.69,5.69,0,0,1,11.75,5h7.5Zm-3,12.75A.76.76,0,0,1,17,17h4.25a.75.75,0,0,1,0,1.5H17A.76.76,0,0,1,16.25,17.75ZM12.75,21a.75.75,0,0,0,0,1.5h8.5a.75.75,0,0,0,0-1.5Z" fill-rule="evenodd"/></svg>