<svg id="Слой_1" data-name="Слой 1" xmlns="http://www.w3.org/2000/svg" viewBox="0 0 32 32"><path d="M25.76,11.62A9.74,9.74,0,0,1,24.2,17a9.34,9.34,0,0,1-6.39,4.16,8.21,8.21,0,0,1-1.41.12,8,8,0,0,1-1.4-.12A9.36,9.36,0,0,1,8.6,17,9.74,9.74,0,0,1,7,11.62,9.49,9.49,0,0,1,16.4,2,9.48,9.48,0,0,1,25.76,11.62Z" fill="none" stroke="#000" stroke-linecap="round" stroke-linejoin="round" stroke-width="1.5"/><path d="M28.77,24.65l-2.2.53a1.32,1.32,0,0,0-1,1l-.47,2a1.33,1.33,0,0,1-2.33.57L16.4,21.25,10,28.8a1.32,1.32,0,0,1-2.32-.56l-.47-2a1.36,1.36,0,0,0-1-1L4,24.66a1.39,1.39,0,0,1-.64-2.31L8.6,17A9.35,9.35,0,0,0,15,21.14a8,8,0,0,0,1.4.12,8.21,8.21,0,0,0,1.41-.12A9.31,9.31,0,0,0,24.2,17l5.22,5.36A1.39,1.39,0,0,1,28.77,24.65Z" fill="none" stroke="#000" stroke-linecap="round" stroke-linejoin="round" stroke-width="1.5"/><path d="M17.18,7.47,18,9.1a1,1,0,0,0,.64.48L20,9.82c.91.16,1.12.84.47,1.52L19.4,12.48a1,1,0,0,0-.23.84l.32,1.41c.26,1.12-.32,1.56-1.28,1l-1.34-.81a.92.92,0,0,0-.88,0l-1.34.81c-1,.58-1.54.16-1.28-1l.32-1.41a1.06,1.06,0,0,0-.23-.84l-1.11-1.14c-.66-.68-.44-1.35.47-1.52l1.43-.24a1.05,1.05,0,0,0,.63-.48l.79-1.63C16.05,6.59,16.75,6.59,17.18,7.47Z" fill="none" stroke="#000" stroke-linecap="round" stroke-linejoin="round" stroke-width="1.5"/></svg>