<?xml version="1.0" encoding="UTF-8"?><svg id="a" xmlns="http://www.w3.org/2000/svg" viewBox="0 0 32 32"><path d="M18.13,5.28c-.53-.19-1.18-.28-1.78-.28s-1.25,.08-1.77,.28h0l-4.99,1.88h0c-.75,.28-1.38,.84-1.83,1.48-.45,.64-.75,1.44-.75,2.23v7.43c0,.74,.24,1.54,.59,2.23,.35,.7,.85,1.36,1.44,1.81h0l4.3,3.21h0c.86,.65,1.96,.95,3.02,.95s2.16-.3,3.02-.94h0l4.3-3.21h0c.59-.44,1.09-1.11,1.44-1.81,.35-.7,.59-1.49,.59-2.23v-7.43c0-.8-.3-1.59-.75-2.24-.45-.65-1.08-1.21-1.83-1.49h0l-4.99-1.87h0Zm-3.03,1.4h0l-5.16,14.46c-.36-.27-.72-.73-1-1.28-.28-.55-.43-1.12-.43-1.56v-7.43c0-.43,.17-.93,.48-1.37,.31-.45,.72-.78,1.12-.93h0l4.99-1.88Zm0,0l-5.16,14.46,4.3,3.21h0c.55,.42,1.32,.65,2.12,.65s1.57-.23,2.12-.64h0l4.3-3.21c.36-.27,.72-.73,1-1.28,.28-.55,.43-1.12,.43-1.56v-7.43c0-.43-.17-.93-.48-1.38-.31-.45-.72-.78-1.12-.93h0l-4.99-1.87c-.32-.12-.78-.19-1.27-.19s-.94,.07-1.25,.18Zm4.74,6.78c.29-.29,.29-.77,0-1.06-.29-.29-.77-.29-1.06,0l-3.77,3.77-1.08-1.08c-.29-.29-.77-.29-1.06,0s-.29,.77,0,1.06l1.61,1.61c.29,.29,.77,.29,1.06,0l4.3-4.3Z" fill-rule="evenodd"/></svg>