<svg id="Слой_1" data-name="Слой 1" xmlns="http://www.w3.org/2000/svg" viewBox="0 0 32 32"><path d="M21.24,6.38c-1.67-.49-3-.56-4,.13A3.86,3.86,0,0,0,16,9.82V12.7a4.53,4.53,0,0,0,.94,3.13,3.6,3.6,0,0,0,2.81,1.06h3.32a3.87,3.87,0,0,0,3.31-1.23c.69-1,.62-2.35.13-4A8,8,0,0,0,21.24,6.38ZM17.5,9.82c0-1.27.26-1.85.6-2.09s1.11-.39,2.72.09a6.47,6.47,0,0,1,4.25,4.25c.47,1.61.34,2.36.09,2.72s-.82.6-2.09.6H19.75a2.12,2.12,0,0,1-1.69-.56,3.12,3.12,0,0,1-.56-2.13Zm-3.34-.94A.75.75,0,0,0,14.75,8a.76.76,0,0,0-.89-.59A9.86,9.86,0,0,0,6.13,18.68h0a9.85,9.85,0,0,0,19.36.3A.75.75,0,0,0,24,18.69a8.35,8.35,0,0,1-9.57,6.58h0a8.34,8.34,0,0,1-.29-16.39Z" fill-rule="evenodd"/></svg>