<svg id="Слой_1" data-name="Слой 1" xmlns="http://www.w3.org/2000/svg" viewBox="0 0 32 32"><path d="M13.68,5h4.14a3.06,3.06,0,0,1,1.72.38,2.22,2.22,0,0,1,.92,1.69A5.48,5.48,0,0,1,24.05,8.6c1,1.12,1.45,2.8,1.45,5.15v6c0,2-.24,3.77-1.31,5s-2.88,1.76-5.44,1.76h-6c-2.56,0-4.35-.51-5.44-1.76s-1.31-3-1.31-5v-6c0-2.34.42-4,1.45-5.14A5.44,5.44,0,0,1,11,7.07,2.22,2.22,0,0,1,12,5.38,3.06,3.06,0,0,1,13.68,5ZM11.06,8.58A3.81,3.81,0,0,0,8.55,9.63c-.64.69-1.05,1.9-1.05,4.12v6c0,2,.26,3.23.94,4S10.31,25,12.75,25h6c2.44,0,3.65-.49,4.31-1.24s.94-2,.94-4v-6c0-2.22-.41-3.44-1.05-4.13a3.87,3.87,0,0,0-2.49-1,2.22,2.22,0,0,1-.34,1,2.61,2.61,0,0,1-2.37,1H13.68A3.06,3.06,0,0,1,12,10.12,2.17,2.17,0,0,1,11.06,8.58ZM19,7.77h0a2,2,0,0,1-.12.94c-.05.06-.23.29-1.13.29h-4a1.92,1.92,0,0,1-1-.12c-.06-.05-.29-.23-.29-1.13s.23-1.08.29-1.13a1.92,1.92,0,0,1,1-.12h4a1.92,1.92,0,0,1,1,.12c.06,0,.29.23.29,1.13ZM11.75,15.2a.75.75,0,0,0,0,1.5h7a.75.75,0,0,0,0-1.5Zm0,4a.75.75,0,0,0,0,1.5h4.38a.75.75,0,0,0,0-1.5Z" fill-rule="evenodd"/></svg>