<svg id="Слой_1" data-name="Слой 1" xmlns="http://www.w3.org/2000/svg" viewBox="0 0 32 32"><path d="M8.75,5A3.79,3.79,0,0,0,6,6,3.79,3.79,0,0,0,5,8.75v2a3.79,3.79,0,0,0,1,2.78,3.79,3.79,0,0,0,2.78,1h2a3.79,3.79,0,0,0,2.78-1,3.79,3.79,0,0,0,1-2.78v-2a3.79,3.79,0,0,0-1-2.78,3.79,3.79,0,0,0-2.78-1ZM6.5,8.75A2.34,2.34,0,0,1,7,7,2.34,2.34,0,0,1,8.75,6.5h2A2.34,2.34,0,0,1,12.47,7,2.34,2.34,0,0,1,13,8.75v2a2.34,2.34,0,0,1-.53,1.72,2.34,2.34,0,0,1-1.72.53h-2A2.34,2.34,0,0,1,7,12.47a2.34,2.34,0,0,1-.53-1.72ZM20.75,5A3.79,3.79,0,0,0,18,6a3.79,3.79,0,0,0-1,2.78v2a3.79,3.79,0,0,0,1,2.78,3.79,3.79,0,0,0,2.78,1h2a3.79,3.79,0,0,0,2.78-1,3.79,3.79,0,0,0,1-2.78v-2a3.79,3.79,0,0,0-1-2.78,3.79,3.79,0,0,0-2.78-1ZM18.5,8.75A2.34,2.34,0,0,1,19,7a2.34,2.34,0,0,1,1.72-.53h2A2.34,2.34,0,0,1,24.47,7,2.34,2.34,0,0,1,25,8.75v2a2.34,2.34,0,0,1-.53,1.72,2.34,2.34,0,0,1-1.72.53h-2A2.34,2.34,0,0,1,19,12.47a2.34,2.34,0,0,1-.53-1.72ZM18,18a3.79,3.79,0,0,1,2.78-1h2a3.79,3.79,0,0,1,2.78,1,3.79,3.79,0,0,1,1,2.78v2a3.79,3.79,0,0,1-1,2.78,3.79,3.79,0,0,1-2.78,1h-2a3.79,3.79,0,0,1-2.78-1,3.79,3.79,0,0,1-1-2.78v-2A3.79,3.79,0,0,1,18,18ZM19,19a2.34,2.34,0,0,0-.53,1.72v2A2.34,2.34,0,0,0,19,24.47a2.34,2.34,0,0,0,1.72.53h2a2.34,2.34,0,0,0,1.72-.53A2.34,2.34,0,0,0,25,22.75v-2A2.34,2.34,0,0,0,24.47,19a2.34,2.34,0,0,0-1.72-.53h-2A2.34,2.34,0,0,0,19,19ZM8.75,17A3.79,3.79,0,0,0,6,18a3.79,3.79,0,0,0-1,2.78v2a3.79,3.79,0,0,0,1,2.78,3.79,3.79,0,0,0,2.78,1h2a3.79,3.79,0,0,0,2.78-1,3.79,3.79,0,0,0,1-2.78v-2a3.79,3.79,0,0,0-1-2.78,3.79,3.79,0,0,0-2.78-1ZM6.5,20.75A2.34,2.34,0,0,1,7,19a2.34,2.34,0,0,1,1.72-.53h2a2.34,2.34,0,0,1,1.72.53A2.34,2.34,0,0,1,13,20.75v2a2.34,2.34,0,0,1-.53,1.72,2.34,2.34,0,0,1-1.72.53h-2A2.34,2.34,0,0,1,7,24.47a2.34,2.34,0,0,1-.53-1.72Z" fill-rule="evenodd"/></svg>