<?xml version="1.0" encoding="UTF-8"?><svg id="a" xmlns="http://www.w3.org/2000/svg" viewBox="0 0 32 32"><path d="M22.56,28c-.29,0-.57-.09-.81-.27l-5.14-3.85c-.36-.27-.84-.27-1.2,0l-5.14,3.85c-.24,.18-.52,.27-.82,.27-.29,0-.58-.1-.82-.28-.24-.18-.41-.43-.51-.72-.09-.29-.09-.6,0-.9l1.94-6.55c.12-.4-.03-.84-.37-1.09l-5.13-3.78c-.24-.18-.41-.44-.5-.73-.09-.29-.09-.61,0-.9,.09-.29,.27-.54,.5-.72,.24-.18,.52-.28,.81-.28h6.32c.43-.01,.82-.29,.95-.71l2.02-6.35c.09-.29,.27-.54,.51-.72,.24-.18,.52-.28,.82-.28s.58,.1,.82,.28c.24,.18,.42,.43,.51,.72l1.99,6.35c.13,.42,.52,.7,.95,.7h6.35c.29,.01,.58,.11,.81,.29,.24,.18,.41,.43,.5,.73,.09,.29,.09,.61,0,.9-.09,.29-.27,.55-.5,.73l-5.13,3.78c-.34,.25-.49,.69-.37,1.09l1.94,6.55c.09,.29,.09,.6,0,.9-.09,.29-.27,.54-.5,.72-.24,.18-.52,.28-.82,.28Z"/></svg>