<?xml version="1.0" encoding="UTF-8"?><svg id="a" xmlns="http://www.w3.org/2000/svg" viewBox="0 0 32 32"><path d="M9.46,22.44v-2.92c0-.97,.76-1.84,1.84-1.84,.97,0,1.84,.76,1.84,1.84v2.81c0,1.95-1.62,3.57-3.57,3.57s-3.57-1.63-3.57-3.57v-6.16c-.11-5.62,4.33-10.17,9.95-10.17s10.05,4.55,10.05,10.06v6.16c0,1.95-1.62,3.57-3.57,3.57s-3.57-1.62-3.57-3.57v-2.81c0-.97,.76-1.84,1.84-1.84,.97,0,1.84,.76,1.84,1.84v3.03" fill="none" stroke="#000" stroke-linecap="round" stroke-linejoin="round" stroke-width="1.5"/></svg>