<svg id="Слой_1" data-name="Слой 1" xmlns="http://www.w3.org/2000/svg" viewBox="0 0 32 32"><path d="M16.05,5A11.05,11.05,0,1,0,27.1,16.05,11.05,11.05,0,0,0,16.05,5ZM9.52,8.67a9.87,9.87,0,0,1,13.06,0l-3.39,3.39a5.07,5.07,0,0,0-6.28,0ZM20,12.91l3.39-3.39a9.85,9.85,0,0,1,0,13.05L20,19.19a5.07,5.07,0,0,0,0-6.28ZM8.67,9.52a9.85,9.85,0,0,0,0,13.05l3.39-3.38a5.07,5.07,0,0,1,0-6.28ZM12.91,20,9.52,23.42a9.84,9.84,0,0,0,13.06,0L19.19,20a5.07,5.07,0,0,1-6.28,0Zm3.14-7.87a3.88,3.88,0,1,0,3.88,3.88A3.88,3.88,0,0,0,16.05,12.17Z" fill-rule="evenodd"/></svg>